<svg xmlns="http://www.w3.org/2000/svg" viewBox="0 0 800 400">
  <defs>
    <linearGradient id="bg-apps" x1="0%" y1="0%" x2="100%" y2="100%">
      <stop offset="0%" style="stop-color:#0f172a;stop-opacity:1"/>
      <stop offset="100%" style="stop-color:#1e1b4b;stop-opacity:1"/>
    </linearGradient>
    <linearGradient id="accent-apps" x1="0%" y1="0%" x2="100%" y2="100%">
      <stop offset="0%" style="stop-color:#22d3ee"/>
      <stop offset="100%" style="stop-color:#f59e0b"/>
    </linearGradient>
  </defs>
  <rect width="800" height="400" fill="url(#bg-apps)" rx="16"/>
  <rect x="150" y="70" width="500" height="240" rx="16" fill="#1e293b" stroke="url(#accent-apps)" stroke-width="2"/>
  <rect x="180" y="100" width="100" height="100" rx="16" fill="#0f172a" stroke="#22d3ee" stroke-width="1.5"/>
  <text x="230" y="140" text-anchor="middle" fill="#22d3ee" font-family="system-ui" font-size="10" font-weight="bold">TV</text>
  <text x="230" y="155" text-anchor="middle" fill="#22d3ee" font-family="system-ui" font-size="7">TiviMate</text>
  <rect x="320" y="100" width="100" height="100" rx="16" fill="#0f172a" stroke="#f59e0b" stroke-width="1.5"/>
  <text x="370" y="140" text-anchor="middle" fill="#f59e0b" font-family="system-ui" font-size="9" font-weight="bold">S</text>
  <text x="370" y="155" text-anchor="middle" fill="#f59e0b" font-family="system-ui" font-size="7">Smarters</text>
  <rect x="460" y="100" width="100" height="100" rx="16" fill="#0f172a" stroke="#818cf8" stroke-width="1.5"/>
  <text x="510" y="140" text-anchor="middle" fill="#818cf8" font-family="system-ui" font-size="10" font-weight="bold">X</text>
  <text x="510" y="155" text-anchor="middle" fill="#818cf8" font-family="system-ui" font-size="7">IPTVX</text>
  <rect x="180" y="220" width="100" height="50" rx="10" fill="#0f172a" stroke="#22c55e" stroke-width="1.5"/>
  <text x="230" y="240" text-anchor="middle" fill="#22c55e" font-family="system-ui" font-size="7">OTT Nav</text>
  <rect x="320" y="220" width="100" height="50" rx="10" fill="#0f172a" stroke="#ef4444" stroke-width="1.5"/>
  <text x="370" y="240" text-anchor="middle" fill="#ef4444" font-family="system-ui" font-size="7">VLC</text>
  <rect x="460" y="220" width="100" height="50" rx="10" fill="#0f172a" stroke="#f97316" stroke-width="1.5"/>
  <text x="510" y="240" text-anchor="middle" fill="#f97316" font-family="system-ui" font-size="7">GSE</text>
  <text x="400" y="375" text-anchor="middle" fill="#94a3b8" font-family="system-ui, sans-serif" font-size="13" letter-spacing="3">IPTV APPS</text>
  <circle cx="80" cy="100" r="40" fill="none" stroke="#22d3ee" stroke-width="1" opacity="0.1"/>
  <circle cx="720" cy="320" r="50" fill="none" stroke="#f59e0b" stroke-width="1" opacity="0.1"/>
</svg>
