<svg xmlns="http://www.w3.org/2000/svg" viewBox="0 0 800 400">
  <defs>
    <linearGradient id="bg-legal" x1="0%" y1="0%" x2="100%" y2="100%">
      <stop offset="0%" style="stop-color:#0f172a;stop-opacity:1"/>
      <stop offset="100%" style="stop-color:#1e1b4b;stop-opacity:1"/>
    </linearGradient>
    <linearGradient id="accent-legal" x1="0%" y1="0%" x2="100%" y2="100%">
      <stop offset="0%" style="stop-color:#22c55e"/>
      <stop offset="100%" style="stop-color:#22d3ee"/>
    </linearGradient>
  </defs>
  <rect width="800" height="400" fill="url(#bg-legal)" rx="16"/>
  <path d="M400 60 L520 100 L520 200 Q520 280 400 330 Q280 280 280 200 L280 100 Z" fill="#1e293b" stroke="url(#accent-legal)" stroke-width="2.5"/>
  <path d="M350 200 L378 228 L445 175" fill="none" stroke="#22c55e" stroke-width="5" stroke-linecap="round" stroke-linejoin="round"/>
  <rect x="200" y="160" width="8" height="80" rx="3" fill="#475569" transform="rotate(10 204 200)"/>
  <rect x="170" y="145" width="70" height="16" rx="6" fill="#64748b" transform="rotate(10 205 153)"/>
  <line x1="560" y1="130" x2="560" y2="190" stroke="#475569" stroke-width="2"/>
  <path d="M520 140 Q540 160 560 140" fill="none" stroke="#64748b" stroke-width="2"/>
  <path d="M560 140 Q580 160 600 140" fill="none" stroke="#64748b" stroke-width="2"/>
  <circle cx="400" cy="200" r="100" fill="none" stroke="#22c55e" stroke-width="0.5" opacity="0.1"/>
  <text x="400" y="375" text-anchor="middle" fill="#94a3b8" font-family="system-ui, sans-serif" font-size="13" letter-spacing="3">IPTV LEGAL</text>
  <circle cx="100" cy="100" r="40" fill="none" stroke="#22c55e" stroke-width="1" opacity="0.08"/>
  <circle cx="700" cy="300" r="50" fill="none" stroke="#22d3ee" stroke-width="1" opacity="0.08"/>
</svg>
