<svg xmlns="http://www.w3.org/2000/svg" viewBox="0 0 800 400">
  <defs>
    <linearGradient id="bg-spt" x1="0%" y1="0%" x2="100%" y2="100%">
      <stop offset="0%" style="stop-color:#0f172a;stop-opacity:1"/>
      <stop offset="100%" style="stop-color:#1e1b4b;stop-opacity:1"/>
    </linearGradient>
    <linearGradient id="accent-spt" x1="0%" y1="0%" x2="100%" y2="100%">
      <stop offset="0%" style="stop-color:#22c55e"/>
      <stop offset="100%" style="stop-color:#22d3ee"/>
    </linearGradient>
  </defs>
  <rect width="800" height="400" fill="url(#bg-spt)" rx="16"/>
  <ellipse cx="400" cy="230" rx="250" ry="100" fill="#052e16" opacity="0.5"/>
  <ellipse cx="400" cy="230" rx="200" ry="70" fill="none" stroke="#22c55e" stroke-width="1.5" opacity="0.3"/>
  <circle cx="400" cy="230" r="30" fill="none" stroke="#22c55e" stroke-width="1.5" opacity="0.3"/>
  <circle cx="400" cy="220" r="12" fill="#fff" opacity="0.9"/>
  <path d="M394 215 Q400 220 406 215" fill="none" stroke="#1e293b" stroke-width="1.5"/>
  <path d="M394 225 Q400 220 406 225" fill="none" stroke="#1e293b" stroke-width="1.5"/>
  <circle cx="360" cy="190" r="10" fill="#f97316" opacity="0.8"/>
  <line x1="354" y1="185" x2="366" y2="195" stroke="#fff" stroke-width="0.8"/>
  <line x1="366" y1="185" x2="354" y2="195" stroke="#fff" stroke-width="0.8"/>
  <rect x="520" y="80" width="70" height="30" rx="8" fill="url(#accent-spt)"/>
  <text x="555" y="100" text-anchor="middle" fill="#0f172a" font-family="system-ui, sans-serif" font-size="12" font-weight="bold">4K</text>
  <rect x="220" y="80" width="60" height="30" rx="8" fill="#ef4444"/>
  <text x="250" y="100" text-anchor="middle" fill="#fff" font-family="system-ui, sans-serif" font-size="11" font-weight="bold">LIVE</text>
  <rect x="280" y="100" width="240" height="35" rx="8" fill="#1e293b" stroke="#334155" stroke-width="1"/>
  <text x="340" y="122" text-anchor="middle" fill="#22c55e" font-family="system-ui" font-size="11" font-weight="bold">IPTV 4K</text>
  <text x="460" y="122" text-anchor="middle" fill="#f97316" font-family="system-ui" font-size="11" font-weight="bold">SPORT</text>
  <text x="400" y="375" text-anchor="middle" fill="#94a3b8" font-family="system-ui, sans-serif" font-size="13" letter-spacing="3">IPTV SPORTS</text>
  <circle cx="80" cy="80" r="50" fill="none" stroke="#22c55e" stroke-width="1" opacity="0.08"/>
  <circle cx="720" cy="320" r="60" fill="none" stroke="#22d3ee" stroke-width="1" opacity="0.08"/>
</svg>
