<svg xmlns="http://www.w3.org/2000/svg" viewBox="0 0 800 400">
  <defs>
    <linearGradient id="bg-trb" x1="0%" y1="0%" x2="100%" y2="100%">
      <stop offset="0%" style="stop-color:#0f172a;stop-opacity:1"/>
      <stop offset="100%" style="stop-color:#1e1b4b;stop-opacity:1"/>
    </linearGradient>
    <linearGradient id="accent-trb" x1="0%" y1="0%" x2="100%" y2="100%">
      <stop offset="0%" style="stop-color:#f59e0b"/>
      <stop offset="100%" style="stop-color:#ef4444"/>
    </linearGradient>
  </defs>
  <rect width="800" height="400" fill="url(#bg-trb)" rx="16"/>
  <circle cx="400" cy="180" r="80" fill="#1e293b" stroke="url(#accent-trb)" stroke-width="2"/>
  <rect x="380" y="120" width="16" height="60" rx="3" fill="#f59e0b" opacity="0.8" transform="rotate(-30 388 150)"/>
  <rect x="395" y="130" width="16" height="50" rx="3" fill="#ef4444" opacity="0.8" transform="rotate(30 403 155)"/>
  <circle cx="400" cy="155" r="8" fill="#f59e0b"/>
  <rect x="200" y="120" width="12" height="60" rx="4" fill="#475569" transform="rotate(15 206 150)"/>
  <circle cx="200" cy="120" r="8" fill="#475569"/>
  <rect x="580" y="130" width="10" height="50" rx="3" fill="#475569" transform="rotate(-15 585 155)"/>
  <rect x="260" y="250" width="6" height="10" rx="1.5" fill="#ef4444"/>
  <rect x="275" y="240" width="6" height="20" rx="1.5" fill="#ef4444" opacity="0.7"/>
  <rect x="290" y="230" width="6" height="30" rx="1.5" fill="#f59e0b" opacity="0.7"/>
  <rect x="305" y="220" width="6" height="40" rx="1.5" fill="#22c55e" opacity="0.7"/>
  <rect x="320" y="210" width="6" height="50" rx="1.5" fill="#22c55e"/>
  <circle cx="530" cy="180" r="40" fill="#22c55e" opacity="0.1"/>
  <path d="M510 180 L524 195 L550 165" fill="none" stroke="#22c55e" stroke-width="4" stroke-linecap="round" stroke-linejoin="round"/>
  <text x="400" y="375" text-anchor="middle" fill="#94a3b8" font-family="system-ui, sans-serif" font-size="13" letter-spacing="3">TROUBLESHOOTING</text>
  <circle cx="100" cy="100" r="45" fill="none" stroke="#f59e0b" stroke-width="1" opacity="0.08"/>
  <circle cx="700" cy="300" r="50" fill="none" stroke="#ef4444" stroke-width="1" opacity="0.08"/>
</svg>
